<svg width="142" height="42" viewBox="0 0 142 42" fill="none" xmlns="http://www.w3.org/2000/svg">
<rect x="0.583008" y="16.3857" width="7.99999" height="7.99999" fill="#039855"/>
<rect x="24.583" y="24.3857" width="8" height="7.99999" transform="rotate(180 24.583 24.3857)" fill="#027A48"/>
<path d="M8.58301 16.3857L16.583 8.38574V16.3857L8.58301 24.3857V16.3857Z" fill="#A6F4C5"/>
<path d="M16.583 24.3858L8.58302 32.3857L8.58302 24.3858L16.583 16.3858L16.583 24.3858Z" fill="#6CE9A6"/>
<path d="M0.583008 16.3857L16.583 0.385742V8.38573L8.58299 16.3857H0.583008Z" fill="#32D583"/>
<path d="M24.583 24.3858L8.58303 40.3857L8.58303 32.3858L16.583 24.3858L24.583 24.3858Z" fill="#12B76A"/>
<path d="M42.0064 28.9525C40.7464 28.9525 39.5253 28.7736 38.3431 28.4158C37.1764 28.058 36.2509 27.5836 35.5664 26.9925L36.6164 24.6358C37.2853 25.1647 38.102 25.6003 39.0664 25.9425C40.0464 26.2691 41.0264 26.4325 42.0064 26.4325C43.2197 26.4325 44.122 26.238 44.7131 25.8491C45.3197 25.4603 45.6231 24.9469 45.6231 24.3091C45.6231 23.8425 45.452 23.4614 45.1097 23.1658C44.7831 22.8547 44.3631 22.6136 43.8497 22.4425C43.3364 22.2714 42.6364 22.0769 41.7497 21.8591C40.5053 21.5636 39.4942 21.268 38.7164 20.9725C37.9542 20.6769 37.2931 20.218 36.7331 19.5958C36.1886 18.958 35.9164 18.1025 35.9164 17.0291C35.9164 16.1269 36.1575 15.3103 36.6397 14.5791C37.1375 13.8325 37.8764 13.2414 38.8564 12.8058C39.852 12.3703 41.0653 12.1525 42.4964 12.1525C43.492 12.1525 44.472 12.2769 45.4364 12.5258C46.4008 12.7747 47.2331 13.1325 47.9331 13.5991L46.9764 15.9558C46.2608 15.5358 45.5142 15.2169 44.7364 14.9991C43.9586 14.7814 43.2042 14.6725 42.4731 14.6725C41.2753 14.6725 40.3808 14.8747 39.7897 15.2791C39.2142 15.6836 38.9264 16.2203 38.9264 16.8891C38.9264 17.3558 39.0897 17.7369 39.4164 18.0325C39.7586 18.328 40.1864 18.5614 40.6997 18.7325C41.2131 18.9036 41.9131 19.098 42.7997 19.3158C44.0131 19.5958 45.0086 19.8914 45.7864 20.2025C46.5642 20.498 47.2253 20.9569 47.7697 21.5791C48.3297 22.2014 48.6097 23.0414 48.6097 24.0991C48.6097 25.0014 48.3608 25.818 47.8631 26.5491C47.3808 27.2803 46.642 27.8636 45.6464 28.2991C44.6508 28.7347 43.4375 28.9525 42.0064 28.9525Z" fill="#060606"/>
<path d="M51.3375 16.2591H54.2542V28.7191H51.3375V16.2591ZM52.8075 14.2058C52.2787 14.2058 51.8353 14.0425 51.4775 13.7158C51.1198 13.3736 50.9409 12.9536 50.9409 12.4558C50.9409 11.958 51.1198 11.5458 51.4775 11.2191C51.8353 10.8769 52.2787 10.7058 52.8075 10.7058C53.3364 10.7058 53.7798 10.8691 54.1375 11.1958C54.4953 11.5069 54.6742 11.9036 54.6742 12.3858C54.6742 12.8991 54.4953 13.3347 54.1375 13.6925C53.7953 14.0347 53.352 14.2058 52.8075 14.2058Z" fill="#060606"/>
<path d="M61.9323 28.8825C60.9212 28.8825 59.9334 28.7503 58.969 28.4858C58.0046 28.2214 57.2346 27.8869 56.659 27.4825L57.779 25.2658C58.339 25.6391 59.0079 25.9425 59.7857 26.1758C60.579 26.3936 61.3568 26.5025 62.119 26.5025C63.8612 26.5025 64.7323 26.0436 64.7323 25.1258C64.7323 24.6903 64.5068 24.3869 64.0557 24.2158C63.6201 24.0447 62.9123 23.8814 61.9323 23.7258C60.9057 23.5703 60.0657 23.3914 59.4123 23.1891C58.7746 22.9869 58.2146 22.6369 57.7323 22.1391C57.2657 21.6258 57.0323 20.918 57.0323 20.0158C57.0323 18.8336 57.5223 17.8925 58.5023 17.1925C59.4979 16.4769 60.8357 16.1191 62.5157 16.1191C63.3712 16.1191 64.2268 16.2203 65.0823 16.4225C65.9379 16.6091 66.6379 16.8658 67.1823 17.1925L66.0623 19.4091C65.0046 18.7869 63.8146 18.4758 62.4923 18.4758C61.6368 18.4758 60.9834 18.608 60.5323 18.8725C60.0968 19.1214 59.879 19.4558 59.879 19.8758C59.879 20.3425 60.1123 20.6769 60.579 20.8791C61.0612 21.0658 61.8001 21.2447 62.7957 21.4158C63.7912 21.5714 64.6079 21.7503 65.2457 21.9525C65.8834 22.1547 66.4279 22.4969 66.879 22.9791C67.3457 23.4614 67.579 24.1458 67.579 25.0325C67.579 26.1991 67.0734 27.1325 66.0623 27.8325C65.0512 28.5325 63.6746 28.8825 61.9323 28.8825Z" fill="#060606"/>
<path d="M81.5296 16.2591L75.6963 29.7225C75.1518 31.0758 74.4907 32.0247 73.7129 32.5691C72.9352 33.1291 71.994 33.4091 70.8896 33.4091C70.2674 33.4091 69.6529 33.308 69.0463 33.1058C68.4396 32.9036 67.9418 32.6236 67.5529 32.2658L68.7196 30.1191C68.9996 30.3836 69.3263 30.5936 69.6996 30.7491C70.0885 30.9047 70.4774 30.9825 70.8663 30.9825C71.3796 30.9825 71.7996 30.8503 72.1263 30.5858C72.4685 30.3214 72.7796 29.878 73.0596 29.2558L73.2696 28.7658L67.8329 16.2591H70.8663L74.7863 25.4758L78.7296 16.2591H81.5296Z" fill="#060606"/>
<path d="M90.2592 16.1191C91.4725 16.1191 92.5536 16.3836 93.5025 16.9125C94.4669 17.4414 95.2214 18.188 95.7658 19.1525C96.3103 20.1169 96.5825 21.2291 96.5825 22.4891C96.5825 23.7491 96.3103 24.8691 95.7658 25.8491C95.2214 26.8136 94.4669 27.5603 93.5025 28.0891C92.5536 28.618 91.4725 28.8825 90.2592 28.8825C88.5792 28.8825 87.2492 28.3225 86.2692 27.2025V33.2458H83.3525V16.2591H86.1292V17.8925C86.6114 17.3014 87.2025 16.858 87.9025 16.5625C88.6181 16.2669 89.4036 16.1191 90.2592 16.1191ZM89.9325 26.3858C91.0058 26.3858 91.8847 26.028 92.5692 25.3125C93.2692 24.5969 93.6192 23.6558 93.6192 22.4891C93.6192 21.3225 93.2692 20.3814 92.5692 19.6658C91.8847 18.9503 91.0058 18.5925 89.9325 18.5925C89.2325 18.5925 88.6025 18.7558 88.0425 19.0825C87.4825 19.3936 87.0392 19.8447 86.7125 20.4358C86.3858 21.0269 86.2225 21.7114 86.2225 22.4891C86.2225 23.2669 86.3858 23.9514 86.7125 24.5425C87.0392 25.1336 87.4825 25.5925 88.0425 25.9191C88.6025 26.2303 89.2325 26.3858 89.9325 26.3858Z" fill="#060606"/>
<path d="M106.419 16.1191C107.99 16.1191 109.25 16.578 110.199 17.4958C111.147 18.4136 111.622 19.7747 111.622 21.5791V28.7191H108.705V21.9525C108.705 20.8636 108.449 20.0469 107.935 19.5025C107.422 18.9425 106.691 18.6625 105.742 18.6625C104.669 18.6625 103.821 18.9891 103.199 19.6425C102.576 20.2803 102.265 21.2058 102.265 22.4191V28.7191H99.3486V11.4058H102.265V17.7058C102.747 17.1925 103.339 16.8036 104.039 16.5391C104.754 16.2591 105.547 16.1191 106.419 16.1191Z" fill="#060606"/>
<path d="M127.385 16.2591V28.7191H124.609V27.1325C124.142 27.6925 123.559 28.128 122.859 28.4391C122.159 28.7347 121.404 28.8825 120.595 28.8825C118.931 28.8825 117.616 28.4236 116.652 27.5058C115.703 26.5725 115.229 25.1958 115.229 23.3758V16.2591H118.145V22.9791C118.145 24.0991 118.394 24.9391 118.892 25.4991C119.405 26.0436 120.129 26.3158 121.062 26.3158C122.104 26.3158 122.929 25.9969 123.535 25.3591C124.157 24.7058 124.469 23.7725 124.469 22.5591V16.2591H127.385Z" fill="#060606"/>
<path d="M135.054 28.8825C134.043 28.8825 133.055 28.7503 132.091 28.4858C131.126 28.2214 130.356 27.8869 129.781 27.4825L130.901 25.2658C131.461 25.6391 132.13 25.9425 132.907 26.1758C133.701 26.3936 134.478 26.5025 135.241 26.5025C136.983 26.5025 137.854 26.0436 137.854 25.1258C137.854 24.6903 137.628 24.3869 137.177 24.2158C136.742 24.0447 136.034 23.8814 135.054 23.7258C134.027 23.5703 133.187 23.3914 132.534 23.1891C131.896 22.9869 131.336 22.6369 130.854 22.1391C130.387 21.6258 130.154 20.918 130.154 20.0158C130.154 18.8336 130.644 17.8925 131.624 17.1925C132.62 16.4769 133.957 16.1191 135.637 16.1191C136.493 16.1191 137.348 16.2203 138.204 16.4225C139.06 16.6091 139.76 16.8658 140.304 17.1925L139.184 19.4091C138.126 18.7869 136.936 18.4758 135.614 18.4758C134.758 18.4758 134.105 18.608 133.654 18.8725C133.218 19.1214 133.001 19.4558 133.001 19.8758C133.001 20.3425 133.234 20.6769 133.701 20.8791C134.183 21.0658 134.922 21.2447 135.917 21.4158C136.913 21.5714 137.73 21.7503 138.367 21.9525C139.005 22.1547 139.55 22.4969 140.001 22.9791C140.467 23.4614 140.701 24.1458 140.701 25.0325C140.701 26.1991 140.195 27.1325 139.184 27.8325C138.173 28.5325 136.796 28.8825 135.054 28.8825Z" fill="#060606"/>
</svg>
