<svg width="188" height="38" viewBox="0 0 188 38" fill="none" xmlns="http://www.w3.org/2000/svg">
<path d="M30.6903 17.7336H26.2C24.915 17.7336 23.6826 17.2232 22.7738 16.3148C21.865 15.4063 21.3542 14.1741 21.3536 12.8891V3.52499C21.3461 2.65033 21.6828 1.80777 22.2909 1.17905C22.899 0.550332 23.7298 0.185833 24.6042 0.164178C25.0364 0.16054 25.4651 0.242539 25.8654 0.405478C26.2657 0.568417 26.6298 0.809049 26.9366 1.11348C27.2434 1.4179 27.4869 1.78013 27.6529 2.17917C27.819 2.57821 27.9043 3.00616 27.904 3.43837V13.7864C27.8971 14.3918 28.0193 14.9917 28.2626 15.5462C28.5059 16.1006 28.8646 16.5968 29.3148 17.0016C29.7042 17.3578 30.1773 17.6096 30.6903 17.7336Z" fill="#060606"/>
<path d="M33.6864 17.4777C35.7892 17.4777 37.4938 15.773 37.4938 13.6702C37.4938 11.5674 35.7892 9.86279 33.6864 9.86279C31.5836 9.86279 29.8789 11.5674 29.8789 13.6702C29.8789 15.773 31.5836 17.4777 33.6864 17.4777Z" fill="#060606"/>
<path d="M21.3535 30.2225V25.7303C21.354 24.4453 21.8649 23.2131 22.7737 22.3047C23.6825 21.3962 24.9149 20.8859 26.1999 20.8859H35.5641C36.4387 20.8779 37.2813 21.2144 37.9098 21.8226C38.5384 22.4309 38.9023 23.2621 38.9229 24.1365C38.9265 24.5687 38.8445 24.9973 38.6816 25.3976C38.5186 25.7979 38.278 26.162 37.9736 26.4688C37.6692 26.7756 37.307 27.0191 36.9079 27.1851C36.5089 27.3512 36.0809 27.4365 35.6487 27.4362H25.3007C24.6953 27.4295 24.0954 27.5519 23.541 27.7952C22.9867 28.0384 22.4905 28.3971 22.0855 28.8471C21.7301 29.237 21.4784 29.7099 21.3535 30.2225Z" fill="#060606"/>
<path d="M25.4168 37.0265C27.5196 37.0265 29.2243 35.3219 29.2243 33.2191C29.2243 31.1163 27.5196 29.4116 25.4168 29.4116C23.314 29.4116 21.6094 31.1163 21.6094 33.2191C21.6094 35.3219 23.314 37.0265 25.4168 37.0265Z" fill="#060606"/>
<path d="M8.2334 19.457H12.7256C14.0106 19.4576 15.2428 19.9684 16.1512 20.8772C17.0597 21.786 17.57 23.0184 17.57 24.3034V33.6676C17.57 35.4798 16.1336 37.0126 14.3214 37.0264C13.889 37.0303 13.4602 36.9485 13.0596 36.7857C12.6591 36.6228 12.2948 36.3822 11.9877 36.0778C11.6807 35.7733 11.4371 35.411 11.2709 35.0119C11.1048 34.6127 11.0193 34.1846 11.0196 33.7522V23.4042C11.0269 22.799 10.9048 22.1992 10.6615 21.6451C10.4182 21.0909 10.0593 20.5952 9.6088 20.191C9.21941 19.8345 8.74633 19.582 8.2334 19.457Z" fill="#060606"/>
<path d="M5.23616 27.3283C7.33896 27.3283 9.04362 25.6236 9.04362 23.5208C9.04362 21.418 7.33896 19.7134 5.23616 19.7134C3.13337 19.7134 1.42871 21.418 1.42871 23.5208C1.42871 25.6236 3.13337 27.3283 5.23616 27.3283Z" fill="#060606"/>
<path d="M17.5675 6.97021V11.4604C17.5675 12.7454 17.0572 13.9778 16.1488 14.8867C15.2403 15.7955 14.0081 16.3063 12.7231 16.3068H3.36092C2.48627 16.3143 1.6437 15.9777 1.01499 15.3696C0.38627 14.7615 0.0217703 13.9306 0.000115965 13.0562C-0.0035227 12.624 0.0785007 12.1954 0.24144 11.7951C0.404379 11.3947 0.64501 11.0306 0.949438 10.7238C1.25387 10.417 1.61607 10.1736 2.01511 10.0075C2.41415 9.84148 2.84212 9.75615 3.27433 9.75643H13.6322C14.2376 9.76337 14.8375 9.6411 15.392 9.39782C15.9464 9.15453 16.4425 8.79585 16.8474 8.34562C17.1993 7.95504 17.447 7.48197 17.5675 6.97021Z" fill="#060606"/>
<path d="M13.5067 7.77946C15.6095 7.77946 17.3141 6.0748 17.3141 3.972C17.3141 1.86921 15.6095 0.164551 13.5067 0.164551C11.4039 0.164551 9.69922 1.86921 9.69922 3.972C9.69922 6.0748 11.4039 7.77946 13.5067 7.77946Z" fill="#060606"/>
<path d="M59.31 9.30632V27.5366H56.5595V9.30632H59.31ZM79.1515 18.4215C79.1515 20.3679 78.7955 22.0414 78.0833 23.4419C77.3712 24.8365 76.395 25.9106 75.1547 26.6643C73.9204 27.412 72.5169 27.7859 70.9443 27.7859C69.3658 27.7859 67.9564 27.412 66.7161 26.6643C65.4818 25.9106 64.5085 24.8335 63.7964 23.433C63.0843 22.0325 62.7282 20.362 62.7282 18.4215C62.7282 16.475 63.0843 14.8045 63.7964 13.4099C64.5085 12.0094 65.4818 10.9353 66.7161 10.1876C67.9564 9.43391 69.3658 9.05708 70.9443 9.05708C72.5169 9.05708 73.9204 9.43391 75.1547 10.1876C76.395 10.9353 77.3712 12.0094 78.0833 13.4099C78.7955 14.8045 79.1515 16.475 79.1515 18.4215ZM76.4277 18.4215C76.4277 16.9379 76.1873 15.6887 75.7066 14.6739C75.2319 13.6532 74.5791 12.8818 73.7483 12.3595C72.9234 11.8314 71.9888 11.5673 70.9443 11.5673C69.894 11.5673 68.9563 11.8314 68.1315 12.3595C67.3066 12.8818 66.6538 13.6532 66.1731 14.6739C65.6984 15.6887 65.461 16.9379 65.461 18.4215C65.461 19.9051 65.6984 21.1572 66.1731 22.1779C66.6538 23.1927 67.3066 23.9641 68.1315 24.4923C68.9563 25.0145 69.894 25.2756 70.9443 25.2756C71.9888 25.2756 72.9234 25.0145 73.7483 24.4923C74.5791 23.9641 75.2319 23.1927 75.7066 22.1779C76.1873 21.1572 76.4277 19.9051 76.4277 18.4215ZM80.8984 11.6741V9.30632H95.0074V11.6741H89.3193V27.5366H86.5776V11.6741H80.8984ZM100.876 9.30632V27.5366H98.1251V9.30632H100.876ZM106.475 9.30632L111.549 24.154H111.753L116.827 9.30632H119.8L113.24 27.5366H110.062L103.502 9.30632H106.475ZM125.183 9.30632V27.5366H122.433V9.30632H125.183ZM129.189 27.5366V9.30632H140.619V11.6741H131.94V17.2287H140.022V19.5876H131.94V25.1688H140.726V27.5366H129.189ZM147.862 27.5366L142.806 9.30632H145.699L149.251 23.4241H149.42L153.114 9.30632H155.981L159.675 23.433H159.844L163.387 9.30632H166.288L161.223 27.5366H158.455L154.619 13.8817H154.476L150.64 27.5366H147.862Z" fill="#060606"/>
</svg>
