<svg width="36" height="37" viewBox="0 0 36 37" fill="none" xmlns="http://www.w3.org/2000/svg">
<rect y="0.942383" width="36" height="36" rx="18" fill="white" fill-opacity="0.3"/>
<rect x="0.5" y="1.44238" width="35" height="35" rx="17.5" stroke="#2E2E1F" stroke-opacity="0.12"/>
<path d="M25.5 13.9255C22.725 13.6505 19.9333 13.5088 17.15 13.5088C15.5 13.5088 13.85 13.5921 12.2 13.7588L10.5 13.9255" stroke="#292D32" stroke-width="1.25" stroke-linecap="round" stroke-linejoin="round"/>
<path d="M15.0835 13.0839L15.2668 11.9922C15.4002 11.2006 15.5002 10.6089 16.9085 10.6089H19.0918C20.5002 10.6089 20.6085 11.2339 20.7335 12.0006L20.9168 13.0839" stroke="#292D32" stroke-width="1.25" stroke-linecap="round" stroke-linejoin="round"/>
<path d="M23.7082 16.5591L23.1665 24.9507C23.0748 26.2591 22.9998 27.2757 20.6748 27.2757H15.3248C12.9998 27.2757 12.9248 26.2591 12.8332 24.9507L12.2915 16.5591" stroke="#292D32" stroke-width="1.25" stroke-linecap="round" stroke-linejoin="round"/>
<path d="M16.6084 22.6924H19.3834" stroke="#292D32" stroke-width="1.25" stroke-linecap="round" stroke-linejoin="round"/>
<path d="M15.9165 19.3589H20.0832" stroke="#292D32" stroke-width="1.25" stroke-linecap="round" stroke-linejoin="round"/>
</svg>
