<svg width="36" height="37" viewBox="0 0 36 37" fill="none" xmlns="http://www.w3.org/2000/svg">
<rect y="0.942383" width="36" height="36" rx="18" fill="white" fill-opacity="0.3"/>
<rect x="0.5" y="1.44238" width="35" height="35" rx="17.5" stroke="#2E2E1F" stroke-opacity="0.12"/>
<path d="M13.7334 24.6923C13.3917 24.6923 13.1084 24.409 13.1084 24.0673V22.3423C13.1084 22.0006 13.3917 21.7173 13.7334 21.7173C14.0751 21.7173 14.3584 22.0006 14.3584 22.3423V24.0673C14.3584 24.4173 14.0751 24.6923 13.7334 24.6923Z" fill="#292D32"/>
<path d="M18 24.6922C17.6583 24.6922 17.375 24.4089 17.375 24.0672V20.6089C17.375 20.2672 17.6583 19.9839 18 19.9839C18.3417 19.9839 18.625 20.2672 18.625 20.6089V24.0672C18.625 24.4172 18.3417 24.6922 18 24.6922Z" fill="#292D32"/>
<path d="M22.2666 24.6926C21.9249 24.6926 21.6416 24.4093 21.6416 24.0676V18.8843C21.6416 18.5426 21.9249 18.2593 22.2666 18.2593C22.6083 18.2593 22.8916 18.5426 22.8916 18.8843V24.0676C22.8916 24.4176 22.6166 24.6926 22.2666 24.6926Z" fill="#292D32"/>
<path d="M13.7336 19.9256C13.4503 19.9256 13.2003 19.7339 13.1253 19.4506C13.042 19.1172 13.242 18.7756 13.5836 18.6922C16.6503 17.9256 19.3503 16.2506 21.4086 13.8589L21.792 13.4089C22.017 13.1506 22.4086 13.1172 22.6753 13.3422C22.9336 13.5672 22.967 13.9589 22.742 14.2256L22.3586 14.6756C20.1336 17.2756 17.2003 19.0839 13.8836 19.9089C13.8336 19.9256 13.7836 19.9256 13.7336 19.9256Z" fill="#292D32"/>
<path d="M22.2669 16.8757C21.9252 16.8757 21.6419 16.5924 21.6419 16.2507V14.4424H19.8252C19.4835 14.4424 19.2002 14.159 19.2002 13.8174C19.2002 13.4757 19.4835 13.1924 19.8252 13.1924H22.2669C22.6085 13.1924 22.8919 13.4757 22.8919 13.8174V16.259C22.8919 16.6007 22.6169 16.8757 22.2669 16.8757Z" fill="#292D32"/>
<path d="M20.5003 27.9006H15.5003C10.9753 27.9006 9.04199 25.9672 9.04199 21.4422V16.4422C9.04199 11.9172 10.9753 9.98389 15.5003 9.98389H20.5003C25.0253 9.98389 26.9587 11.9172 26.9587 16.4422V21.4422C26.9587 25.9672 25.0253 27.9006 20.5003 27.9006ZM15.5003 11.2339C11.6587 11.2339 10.292 12.6006 10.292 16.4422V21.4422C10.292 25.2839 11.6587 26.6506 15.5003 26.6506H20.5003C24.342 26.6506 25.7087 25.2839 25.7087 21.4422V16.4422C25.7087 12.6006 24.342 11.2339 20.5003 11.2339H15.5003Z" fill="#292D32"/>
</svg>
