<svg width="36" height="37" viewBox="0 0 36 37" fill="none" xmlns="http://www.w3.org/2000/svg">
<rect y="0.942383" width="36" height="36" rx="18" fill="white" fill-opacity="0.3"/>
<rect x="0.5" y="1.44238" width="35" height="35" rx="17.5" stroke="#2E2E1F" stroke-opacity="0.12"/>
<path d="M10.5 16.534V21.3424C10.5 23.109 10.5 23.109 12.1667 24.234L16.75 26.884C17.4417 27.284 18.5667 27.284 19.25 26.884L23.8333 24.234C25.5 23.109 25.5 23.109 25.5 21.3507V16.534C25.5 14.7757 25.5 14.7757 23.8333 13.6507L19.25 11.0007C18.5667 10.6007 17.4417 10.6007 16.75 11.0007L12.1667 13.6507C10.5 14.7757 10.5 14.7757 10.5 16.534Z" stroke="#292D32" stroke-width="1.5" stroke-linecap="round" stroke-linejoin="round"/>
<path d="M18 21.4424C19.3807 21.4424 20.5 20.3231 20.5 18.9424C20.5 17.5617 19.3807 16.4424 18 16.4424C16.6193 16.4424 15.5 17.5617 15.5 18.9424C15.5 20.3231 16.6193 21.4424 18 21.4424Z" stroke="#292D32" stroke-width="1.5" stroke-linecap="round" stroke-linejoin="round"/>
</svg>
