<svg width="36" height="37" viewBox="0 0 36 37" fill="none" xmlns="http://www.w3.org/2000/svg">
<rect y="0.942383" width="36" height="36" rx="18" fill="white" fill-opacity="0.3"/>
<rect x="0.5" y="1.44238" width="35" height="35" rx="17.5" stroke="#2E2E1F" stroke-opacity="0.12"/>
<path d="M24.6668 15.8172V23.9422C24.6668 26.4422 23.1752 27.2756 21.3335 27.2756H14.6668C12.8252 27.2756 11.3335 26.4422 11.3335 23.9422V15.8172C11.3335 13.1089 12.8252 12.4839 14.6668 12.4839C14.6668 13.0006 14.8751 13.4672 15.2168 13.8089C15.5585 14.1506 16.0252 14.3589 16.5418 14.3589H19.4585C20.4918 14.3589 21.3335 13.5172 21.3335 12.4839C23.1752 12.4839 24.6668 13.1089 24.6668 15.8172Z" stroke="#292D32" stroke-width="1.5" stroke-linecap="round" stroke-linejoin="round"/>
<path d="M21.3332 12.4839C21.3332 13.5172 20.4915 14.3589 19.4582 14.3589H16.5415C16.0248 14.3589 15.5581 14.1506 15.2165 13.8089C14.8748 13.4672 14.6665 13.0006 14.6665 12.4839C14.6665 11.4506 15.5082 10.6089 16.5415 10.6089H19.4582C19.9748 10.6089 20.4415 10.8172 20.7832 11.1589C21.1249 11.5006 21.3332 11.9672 21.3332 12.4839Z" stroke="#292D32" stroke-width="1.5" stroke-linecap="round" stroke-linejoin="round"/>
<path d="M14.6665 19.7759H17.9998" stroke="#292D32" stroke-width="1.5" stroke-linecap="round" stroke-linejoin="round"/>
<path d="M14.6665 23.1089H21.3332" stroke="#292D32" stroke-width="1.5" stroke-linecap="round" stroke-linejoin="round"/>
</svg>
