<svg width="36" height="37" viewBox="0 0 36 37" fill="none" xmlns="http://www.w3.org/2000/svg">
<rect y="0.942383" width="36" height="36" rx="18" fill="white" fill-opacity="0.3"/>
<rect x="0.5" y="1.44238" width="35" height="35" rx="17.5" stroke="#2E2E1F" stroke-opacity="0.12"/>
<path d="M23.833 22.2757V14.359C23.833 13.4424 23.083 12.6924 22.1663 12.6924H17.583" stroke="#292D32" stroke-width="1.5" stroke-linecap="round" stroke-linejoin="round"/>
<path d="M19.667 10.6089L17.167 12.6922L19.667 14.7756" stroke="#292D32" stroke-width="1.5" stroke-linecap="round" stroke-linejoin="round"/>
<path d="M23.833 27.2759C25.2137 27.2759 26.333 26.1566 26.333 24.7759C26.333 23.3952 25.2137 22.2759 23.833 22.2759C22.4523 22.2759 21.333 23.3952 21.333 24.7759C21.333 26.1566 22.4523 27.2759 23.833 27.2759Z" stroke="#292D32" stroke-width="1.5" stroke-linecap="round" stroke-linejoin="round"/>
<path d="M12.167 15.6089V23.5256C12.167 24.4422 12.917 25.1922 13.8337 25.1922H18.417" stroke="#292D32" stroke-width="1.5" stroke-linecap="round" stroke-linejoin="round"/>
<path d="M16.333 27.2756L18.833 25.1922L16.333 23.1089" stroke="#292D32" stroke-width="1.5" stroke-linecap="round" stroke-linejoin="round"/>
<path d="M12.167 15.6089C13.5477 15.6089 14.667 14.4896 14.667 13.1089C14.667 11.7282 13.5477 10.6089 12.167 10.6089C10.7863 10.6089 9.66699 11.7282 9.66699 13.1089C9.66699 14.4896 10.7863 15.6089 12.167 15.6089Z" stroke="#292D32" stroke-width="1.5" stroke-linecap="round" stroke-linejoin="round"/>
</svg>
