<svg width="27" height="27" viewBox="0 0 27 27" fill="none" xmlns="http://www.w3.org/2000/svg">
<path d="M24.8766 0.349609H2.49369C1.46808 0.349609 0.634766 1.20255 0.634766 2.24961V24.8026C0.634766 25.8496 1.46808 26.7026 2.49369 26.7026H24.8766C25.9022 26.7026 26.7414 25.8496 26.7414 24.8026V2.24961C26.7414 1.20255 25.9022 0.349609 24.8766 0.349609ZM8.52502 22.9378H4.65565V10.3614H8.53084V22.9378H8.52502ZM6.59033 8.64373C5.3491 8.64373 4.3468 7.62608 4.3468 6.37902C4.3468 5.13196 5.3491 4.11432 6.59033 4.11432C7.82573 4.11432 8.83387 5.13196 8.83387 6.37902C8.83387 7.63196 7.83156 8.64373 6.59033 8.64373ZM23.0293 22.9378H19.16V16.8202C19.16 15.3614 19.1308 13.4849 17.1495 13.4849C15.1332 13.4849 14.8244 15.0731 14.8244 16.7143V22.9378H10.955V10.3614H14.6671V12.079H14.7195C15.2381 11.0908 16.5027 10.0496 18.3849 10.0496C22.3009 10.0496 23.0293 12.6555 23.0293 16.0437V22.9378Z" fill="#060606"/>
</svg>
