<svg width="39" height="38" viewBox="0 0 39 38" fill="none" xmlns="http://www.w3.org/2000/svg">
<path d="M30.6903 18.1381H26.2C24.915 18.1381 23.6826 17.6278 22.7738 16.7193C21.865 15.8109 21.3542 14.5787 21.3536 13.2937V3.92955C21.3461 3.0549 21.6828 2.21233 22.2909 1.58361C22.899 0.954896 23.7298 0.590397 24.6042 0.568742C25.0364 0.565104 25.4651 0.647103 25.8654 0.810042C26.2657 0.972981 26.6298 1.21361 26.9366 1.51804C27.2434 1.82247 27.4869 2.1847 27.6529 2.58374C27.819 2.98278 27.9043 3.41072 27.904 3.84293V14.191C27.8971 14.7964 28.0193 15.3963 28.2626 15.9507C28.5059 16.5052 28.8646 17.0014 29.3148 17.4062C29.7042 17.7624 30.1773 18.0142 30.6903 18.1381Z" fill="#F8F8F8"/>
<path d="M33.6864 17.8824C35.7892 17.8824 37.4938 16.1778 37.4938 14.075C37.4938 11.9722 35.7892 10.2675 33.6864 10.2675C31.5836 10.2675 29.8789 11.9722 29.8789 14.075C29.8789 16.1778 31.5836 17.8824 33.6864 17.8824Z" fill="#F8F8F8"/>
<path d="M21.3535 30.6271V26.1349C21.354 24.8499 21.8649 23.6177 22.7737 22.7093C23.6825 21.8008 24.9149 21.2905 26.1999 21.2905H35.5641C36.4387 21.2825 37.2813 21.619 37.9098 22.2272C38.5384 22.8355 38.9023 23.6667 38.9229 24.5411C38.9265 24.9733 38.8445 25.4019 38.6816 25.8022C38.5186 26.2025 38.278 26.5666 37.9736 26.8734C37.6692 27.1802 37.307 27.4237 36.9079 27.5897C36.5089 27.7558 36.0809 27.8411 35.6487 27.8408H25.3007C24.6953 27.8341 24.0954 27.9565 23.541 28.1998C22.9867 28.443 22.4905 28.8017 22.0855 29.2517C21.7301 29.6416 21.4784 30.1145 21.3535 30.6271Z" fill="#F8F8F8"/>
<path d="M25.4168 37.4312C27.5196 37.4312 29.2243 35.7265 29.2243 33.6237C29.2243 31.5209 27.5196 29.8163 25.4168 29.8163C23.314 29.8163 21.6094 31.5209 21.6094 33.6237C21.6094 35.7265 23.314 37.4312 25.4168 37.4312Z" fill="#F8F8F8"/>
<path d="M8.2334 19.8618H12.7256C14.0106 19.8624 15.2428 20.3732 16.1512 21.282C17.0597 22.1908 17.57 23.4232 17.57 24.7082V34.0724C17.57 35.8846 16.1336 37.4175 14.3214 37.4312C13.889 37.4351 13.4602 37.3533 13.0596 37.1905C12.6591 37.0276 12.2948 36.7871 11.9877 36.4826C11.6807 36.1782 11.4371 35.8158 11.2709 35.4167C11.1048 35.0175 11.0193 34.5894 11.0196 34.157V23.809C11.0269 23.2038 10.9048 22.604 10.6615 22.0499C10.4182 21.4957 10.0593 21 9.6088 20.5958C9.21941 20.2393 8.74633 19.9868 8.2334 19.8618Z" fill="#F8F8F8"/>
<path d="M5.23616 27.7325C7.33896 27.7325 9.04362 26.0279 9.04362 23.9251C9.04362 21.8223 7.33896 20.1176 5.23616 20.1176C3.13337 20.1176 1.42871 21.8223 1.42871 23.9251C1.42871 26.0279 3.13337 27.7325 5.23616 27.7325Z" fill="#F8F8F8"/>
<path d="M17.5675 7.37498V11.8652C17.5675 13.1502 17.0572 14.3826 16.1488 15.2914C15.2403 16.2002 14.0081 16.7111 12.7231 16.7116H3.36092C2.48627 16.7191 1.6437 16.3825 1.01499 15.7744C0.38627 15.1663 0.0217703 14.3354 0.000115965 13.461C-0.0035227 13.0288 0.0785007 12.6001 0.24144 12.1998C0.404379 11.7995 0.64501 11.4354 0.949438 11.1286C1.25387 10.8218 1.61607 10.5783 2.01511 10.4123C2.41415 10.2462 2.84212 10.1609 3.27433 10.1612H13.6322C14.2376 10.1681 14.8375 10.0459 15.392 9.80259C15.9464 9.5593 16.4425 9.20062 16.8474 8.75039C17.1993 8.35981 17.447 7.88674 17.5675 7.37498Z" fill="#F8F8F8"/>
<path d="M13.5067 8.18372C15.6095 8.18372 17.3141 6.47907 17.3141 4.37627C17.3141 2.27347 15.6095 0.568817 13.5067 0.568817C11.4039 0.568817 9.69922 2.27347 9.69922 4.37627C9.69922 6.47907 11.4039 8.18372 13.5067 8.18372Z" fill="#F8F8F8"/>
</svg>
