<svg width="30" height="25" viewBox="0 0 30 25" fill="none" xmlns="http://www.w3.org/2000/svg">
<path d="M26.7692 6.39153C26.7881 6.65906 26.7881 6.92664 26.7881 7.19417C26.7881 15.3542 20.6354 24.7564 9.39004 24.7564C5.92555 24.7564 2.70722 23.7435 0 21.9855C0.492237 22.0428 0.965478 22.0619 1.47665 22.0619C4.33527 22.0619 6.96679 21.0873 9.06819 19.4247C6.37991 19.3673 4.12706 17.5901 3.35085 15.144C3.72951 15.2013 4.10812 15.2395 4.50572 15.2395C5.05471 15.2395 5.60377 15.1631 6.11488 15.0294C3.31303 14.456 1.21157 11.9717 1.21157 8.97141V8.895C2.02559 9.35364 2.97225 9.64029 3.97554 9.67847C2.3285 8.57006 1.24944 6.67817 1.24944 4.53782C1.24944 3.39123 1.55229 2.34017 2.08241 1.42288C5.09253 5.16847 9.61719 7.61453 14.6908 7.88212C14.5961 7.42347 14.5393 6.94576 14.5393 6.468C14.5393 3.06635 17.2655 0.29541 20.6542 0.29541C22.4148 0.29541 24.0051 1.0407 25.1221 2.24465C26.504 1.97712 27.8292 1.46112 29.003 0.754057C28.5486 2.18735 27.5831 3.39129 26.3147 4.15565C27.5453 4.02194 28.738 3.67788 29.836 3.20018C29.0031 4.42317 27.9618 5.51241 26.7692 6.39153V6.39153Z" fill="#060606"/>
</svg>
