<svg width="32" height="23" viewBox="0 0 32 23" fill="none" xmlns="http://www.w3.org/2000/svg">
<path d="M31.335 3.76574C30.969 2.37456 29.8906 1.27892 28.5213 0.907093C26.0394 0.231445 16.0874 0.231445 16.0874 0.231445C16.0874 0.231445 6.13544 0.231445 3.65351 0.907093C2.28425 1.27897 1.20584 2.37456 0.839823 3.76574C0.174805 6.28733 0.174805 11.5484 0.174805 11.5484C0.174805 11.5484 0.174805 16.8094 0.839823 19.331C1.20584 20.7222 2.28425 21.7722 3.65351 22.144C6.13544 22.8197 16.0874 22.8197 16.0874 22.8197C16.0874 22.8197 26.0394 22.8197 28.5213 22.144C29.8906 21.7722 30.969 20.7222 31.335 19.331C32 16.8094 32 11.5484 32 11.5484C32 11.5484 32 6.28733 31.335 3.76574V3.76574ZM12.8325 16.325V6.77174L21.1505 11.5485L12.8325 16.325V16.325Z" fill="#060606"/>
</svg>
