<svg width="202" height="36" viewBox="0 0 202 36" fill="none" xmlns="http://www.w3.org/2000/svg">
<path d="M90.9889 15.7106C90.9813 19.5376 90.9738 23.3641 90.9663 27.1902C90.9663 28.3096 90.9578 28.318 89.8202 28.318C88.9983 28.318 88.1764 28.3067 87.3545 28.318C86.8286 28.3265 86.5918 28.1193 86.5918 27.5681C86.6012 21.4158 86.6012 15.2646 86.5918 9.11426C86.5918 8.53485 86.8174 8.32197 87.3869 8.33607C88.4668 8.36144 89.5481 8.36708 90.6294 8.33607C91.1933 8.31774 91.5316 8.52638 91.822 9.00288C93.2416 11.3262 94.6881 13.634 96.1289 15.9446C96.6138 16.7214 96.6237 16.72 97.1086 15.9446C98.5353 13.6523 99.9761 11.3685 101.372 9.05788C101.695 8.5264 102.061 8.31066 102.676 8.33744C103.663 8.37974 104.649 8.33749 105.636 8.35018C106.571 8.35018 106.594 8.3741 106.595 9.28904C106.595 12.7862 106.595 16.2843 106.595 19.7834C106.595 22.3421 106.577 24.9022 106.608 27.4609C106.608 28.1094 106.389 28.3505 105.762 28.3308C104.893 28.3026 104.024 28.2955 103.157 28.3308C102.463 28.3618 102.212 28.1193 102.219 27.4003C102.249 23.7617 102.232 20.1231 102.232 16.4831V15.6161C101.809 15.8078 101.713 16.1137 101.551 16.3576C100.087 18.5691 98.626 20.7838 97.1693 23.0018C96.5715 23.9069 96.5588 23.8984 95.9752 23.0187C94.353 20.5752 92.7262 18.1316 91.0946 15.688L91.041 15.6612L90.9889 15.7106Z" fill="#060606"/>
<path d="M110.801 18.307C110.801 15.3259 110.801 12.3442 110.801 9.36205C110.801 8.37522 110.825 8.35267 111.767 8.35126C114.609 8.35126 117.45 8.35126 120.29 8.35126C121.635 8.3341 122.963 8.64371 124.161 9.2535C127.329 10.8945 127.404 15.5538 124.814 17.385C124.175 17.8348 124.188 17.8813 124.889 18.2168C127.04 19.2459 127.927 20.9729 127.739 23.3075C127.56 25.5293 126.311 26.9038 124.291 27.6707C123.042 28.1444 121.739 28.2881 120.417 28.291C117.552 28.2975 114.686 28.2975 111.817 28.291C110.831 28.291 110.802 28.2459 110.794 27.2477C110.794 27.1998 110.794 27.1533 110.794 27.1068C110.798 24.1716 110.8 21.2384 110.801 18.307ZM118.225 24.4325C118.93 24.4325 119.635 24.4325 120.339 24.4325C120.928 24.4413 121.512 24.3404 122.064 24.135C122.94 23.7868 123.37 23.1581 123.365 22.2445C123.365 21.3634 122.942 20.7516 122.096 20.4005C121.617 20.203 121.104 20.0987 120.586 20.0932C118.966 20.072 117.344 20.0834 115.73 20.0679C115.291 20.0679 115.074 20.2356 115.077 20.6853C115.077 21.7173 115.085 22.7492 115.077 23.7868C115.077 24.2689 115.291 24.455 115.763 24.4451C116.582 24.417 117.403 24.4297 118.225 24.4297V24.4325ZM117.644 16.3968V16.3334C118.439 16.3334 119.234 16.3461 120.029 16.3263C120.286 16.3067 120.539 16.2511 120.781 16.1613C121.868 15.8117 122.364 15.0603 122.231 13.9875C122.123 13.1078 121.48 12.4932 120.399 12.3212C118.817 12.0688 117.22 12.2295 115.629 12.207C115.256 12.207 115.077 12.4199 115.077 12.785C115.077 13.7916 115.077 14.7981 115.077 15.8047C115.077 16.2065 115.259 16.4053 115.675 16.3997C116.331 16.387 116.988 16.3954 117.644 16.3954V16.3968Z" fill="#060606"/>
<path d="M187.785 16.0038V19.0235C187.785 21.8177 187.764 24.6118 187.8 27.406C187.809 28.1306 187.544 28.3604 186.858 28.3322C185.967 28.2941 185.073 28.311 184.179 28.3237C183.644 28.3322 183.429 28.1024 183.431 27.5596C183.44 21.4083 183.44 15.2571 183.431 9.10582C183.431 8.51372 183.683 8.32482 184.24 8.34174C185.06 8.36712 185.885 8.38262 186.706 8.34174C187.32 8.3065 187.692 8.56028 188.053 9.03396C190.726 12.5753 193.412 16.1077 196.11 19.6311C196.276 19.8497 196.457 20.0541 196.674 20.336C196.853 19.9906 196.798 19.7101 196.798 19.4436C196.798 16.0602 196.798 12.6791 196.798 9.30035C196.798 8.3826 196.821 8.36431 197.754 8.35867C198.6 8.35867 199.446 8.38968 200.291 8.34738C200.967 8.31355 201.182 8.56732 201.18 9.23978C201.156 13.4888 201.168 17.7392 201.168 21.9882C201.168 23.8209 201.143 25.6536 201.181 27.4863C201.194 28.1517 200.931 28.3322 200.315 28.3463C197.476 28.4027 197.478 28.4125 195.76 26.1555C193.3 22.9243 190.838 19.6936 188.375 16.4634C188.234 16.2843 188.086 16.1166 187.94 15.9432L187.785 16.0038Z" fill="#060606"/>
<path d="M131.38 18.2708C131.38 15.2905 131.38 12.3098 131.38 9.32863C131.38 8.37704 131.41 8.35026 132.378 8.3418C135.149 8.3418 137.921 8.3418 140.696 8.3418C142.223 8.3418 143.696 8.6054 145.029 9.37936C149.042 11.7012 149.087 18.0706 145.115 20.5165C144.901 20.6602 144.674 20.7847 144.437 20.8887C143.924 21.0903 143.893 21.368 144.195 21.7994C145.163 23.1852 146.109 24.5851 147.064 25.9793C147.474 26.5799 147.877 27.1861 148.293 27.7839C148.53 28.1222 148.462 28.3125 148.041 28.3111C146.631 28.3111 145.221 28.2871 143.811 28.2758C143.421 28.2758 143.247 27.9939 143.06 27.7119C141.912 25.9948 140.749 24.2876 139.623 22.555C139.32 22.0898 138.973 21.8713 138.413 21.9037C137.782 21.9403 137.145 21.9291 136.513 21.9037C135.974 21.8854 135.759 22.1025 135.766 22.6509C135.788 24.2228 135.749 25.7961 135.783 27.368C135.797 28.0235 135.594 28.3167 134.906 28.2885C134.015 28.2504 133.121 28.2575 132.227 28.2885C131.589 28.3082 131.366 28.0489 131.37 27.4145C131.393 24.3694 131.381 21.3215 131.38 18.2708ZM135.774 15.1087C135.774 15.8587 135.781 16.6101 135.774 17.3643C135.774 17.7604 135.915 17.9944 136.338 17.9944C137.91 17.9944 139.488 18.11 141.052 17.9296C142.534 17.7576 143.486 16.6946 143.518 15.3117C143.56 13.5396 142.551 12.4808 140.567 12.361C139.187 12.2778 137.799 12.3399 136.413 12.3145C135.914 12.3061 135.755 12.5344 135.766 12.9982C135.787 13.6989 135.774 14.4038 135.774 15.1087Z" fill="#060606"/>
<path d="M17.185 35.5657H16.0571C14.9293 35.5657 14.9209 35.5658 14.9956 34.4126C15.1854 31.198 16.1615 28.0791 17.8381 25.3298C19.5147 22.5805 21.8406 20.2849 24.6116 18.6444C25.3165 18.2214 25.3165 18.1876 24.6116 17.752C18.856 14.1749 15.6563 9.01283 15.0125 2.2657C14.8814 0.879906 14.8899 0.878518 16.2545 0.878518C17.1004 0.878518 17.9462 0.889796 18.7921 0.878518C19.2488 0.87147 19.4392 1.03078 19.4885 1.5242C20.1328 7.85968 23.2723 12.4033 29.2074 14.8958C30.7582 15.5471 32.4019 15.822 34.0669 15.97C34.4997 16.0081 34.7097 16.1349 34.7041 16.5931C34.6886 17.673 34.6858 18.7529 34.7041 19.8356C34.714 20.3262 34.5011 20.4672 34.033 20.4982C26.4203 21.0156 20.8658 26.0851 19.6534 33.5991C19.6168 33.8289 19.5646 34.0587 19.5125 34.2856C19.4222 34.6691 19.6534 35.164 19.3292 35.429C18.9528 35.7363 18.4241 35.5319 17.9617 35.57C17.7023 35.5799 17.4429 35.5657 17.185 35.5657Z" fill="#060606"/>
<path d="M81.2905 28.3772C80.6801 28.3772 80.0683 28.3533 79.4578 28.3772C78.9588 28.404 78.6895 28.2193 78.5246 27.7386C78.1016 26.5177 77.6167 25.3209 77.2036 24.0986C77.0119 23.5347 76.7243 23.4036 76.1519 23.5262C74.6139 23.8561 73.0674 24.1437 71.518 24.4158C69.9462 24.6907 68.8902 25.4999 68.3686 27.0619C67.8555 28.5986 68.0867 28.349 66.5092 28.3702C65.6168 28.3814 64.7244 28.3702 63.8306 28.3702C62.8283 28.3702 62.8099 28.3434 63.1962 27.3833C64.9678 22.9858 66.7413 18.5888 68.5167 14.1922C69.2215 12.4511 69.9391 10.7171 70.6158 8.96477C70.8202 8.43329 71.0909 8.18515 71.6929 8.20771C72.8883 8.25141 74.0894 8.23453 75.2849 8.2148C75.7417 8.20634 76.018 8.34448 76.1956 8.79419C78.6937 15.0752 81.2017 21.3524 83.7195 27.6258C83.9507 28.201 83.7802 28.397 83.1895 28.3744C82.5593 28.3589 81.9235 28.3772 81.2905 28.3772ZM73.4988 14.0597L73.2845 14.0794C72.4865 16.1996 71.6877 18.3199 70.8879 20.4402C70.6694 21.0267 71.0923 20.9491 71.4137 20.8899C72.588 20.6771 73.7553 20.4205 74.9381 20.2259C75.5612 20.123 75.643 19.8383 75.44 19.3011C75.0523 18.2974 74.697 17.281 74.3235 16.2716C74.0514 15.5329 73.7737 14.797 73.4988 14.0597Z" fill="#060606"/>
<path d="M170.594 8.22726C171.256 8.3062 172.205 7.92133 172.849 8.39219C173.463 8.83767 173.543 9.79348 173.836 10.5308C176.092 16.152 178.338 21.776 180.576 27.4029C180.954 28.3502 180.937 28.3756 179.919 28.377C178.746 28.377 177.571 28.3573 176.395 28.3869C175.886 28.3982 175.632 28.1994 175.47 27.7299C175.047 26.5105 174.568 25.3108 174.148 24.0899C173.97 23.5697 173.712 23.4034 173.161 23.526C171.552 23.8658 169.934 24.1533 168.32 24.4607C166.866 24.7426 165.878 25.5109 165.371 26.9574C164.778 28.6491 165.117 28.3559 163.311 28.3812C162.418 28.3939 161.526 28.3897 160.632 28.3812C159.85 28.3728 159.786 28.2924 160.085 27.565C162.005 22.7972 163.928 18.0303 165.854 13.2643C166.418 11.8546 167.024 10.4448 167.546 9.01392C167.771 8.40349 168.11 8.16804 168.745 8.22161C169.314 8.26673 169.88 8.22726 170.594 8.22726ZM170.474 14.0736L170.25 14.0538C169.429 16.2375 168.604 18.4241 167.795 20.6064C167.681 20.9123 167.902 20.9743 168.149 20.9278C169.485 20.6769 170.819 20.4222 172.151 20.1637C172.452 20.1045 172.605 19.9198 172.49 19.5998C171.821 17.7577 171.149 15.917 170.474 14.0778V14.0736Z" fill="#060606"/>
<path d="M42.5957 18.3624C42.5957 12.1313 47.5299 7.5763 53.7681 8.00205C56.1872 8.16699 58.3625 8.8648 60.2333 10.4522C60.7464 10.8878 60.8691 11.2262 60.3418 11.752C59.7338 12.3725 59.1624 13.0277 58.6304 13.7144C58.2483 14.1965 57.9494 14.2783 57.449 13.8328C56.5217 12.9894 55.378 12.4207 54.1459 12.1904C50.6384 11.5631 47.5637 13.947 47.2564 17.5334C47.1563 18.6951 47.2564 19.8342 47.7145 20.9169C49.082 24.1748 52.6135 25.4902 55.801 23.9338C56.5003 23.5961 57.1467 23.1582 57.7196 22.634C58.1059 22.2773 58.3808 22.3323 58.7178 22.6975C59.307 23.3361 59.9118 23.9662 60.5505 24.5527C60.9734 24.9403 60.9071 25.2097 60.5335 25.5903C58.1539 28.0123 55.2159 28.8891 51.9227 28.6015C46.4288 28.1264 42.5985 23.8718 42.5957 18.3624Z" fill="#060606"/>
<path d="M0.00567963 18.2086C0.00567963 17.8336 0.00567963 17.4572 0.00567963 17.0808C0.00567963 15.967 0.00568409 15.953 1.19975 15.8529C3.12347 15.6903 4.99689 15.1535 6.71475 14.2725C9.02707 13.0926 10.9982 11.3394 12.4398 9.18044C12.5639 8.99717 12.6259 8.67158 12.8994 8.71105C13.1123 8.74065 13.1292 9.03948 13.2067 9.2298C13.6451 10.321 14.116 11.4009 14.7574 12.3835C15.1578 12.9953 15.0507 13.3999 14.5742 13.9074C13.1931 15.4156 11.6032 16.7182 9.85288 17.7758C9.17056 18.179 9.17056 18.2058 9.84302 18.6075C11.6798 19.7057 13.3349 21.0826 14.749 22.6888C15.1141 23.1005 15.1057 23.4261 14.8293 23.8702C14.2065 24.8929 13.6731 25.9674 13.2349 27.0817C13.1503 27.2903 13.1376 27.6132 12.8853 27.6456C12.6329 27.678 12.5455 27.3636 12.4201 27.179C10.1644 23.9097 7.12358 21.7795 3.25659 20.8519C2.43632 20.6463 1.5966 20.5282 0.75145 20.4994C0.149481 20.4853 -0.0253293 20.226 0.00286596 19.6804C0.0268319 19.1955 0.0070894 18.702 0.00567963 18.2086Z" fill="#060606"/>
<path d="M156.753 18.3735C156.753 21.3547 156.753 24.3359 156.753 27.3171C156.753 28.2207 156.69 28.2827 155.8 28.2912C154.954 28.2982 154.108 28.2588 153.263 28.3025C152.558 28.3391 152.29 28.0812 152.31 27.3735C152.345 26.0835 152.318 24.7921 152.318 23.5008C152.318 18.8307 152.318 14.1597 152.318 9.48777C152.318 8.35996 152.332 8.35011 153.456 8.34729C154.183 8.34729 154.911 8.34729 155.638 8.34729C156.746 8.34729 156.75 8.34728 156.75 9.43139C156.754 12.4116 156.755 15.3924 156.753 18.3735Z" fill="#060606"/>
<path d="M90.9893 15.7104L91.0315 15.6696L91.0851 15.6963C91.0538 15.7046 91.0216 15.7093 90.9893 15.7104Z" fill="#060606"/>
</svg>
