<svg width="215" height="33" viewBox="0 0 215 33" fill="none" xmlns="http://www.w3.org/2000/svg">
<path d="M19.4906 0.463655C19.4662 0.938527 19.8677 0.776143 20.0877 0.835502C26.0568 2.40677 30.0251 6.11321 31.6994 12.0456C34.1907 20.8814 28.5568 29.883 19.5395 31.6603C19.3178 31.7039 19.0681 31.6604 18.8901 31.8472C18.8709 31.8681 18.8394 31.9117 18.8447 31.917C18.8829 31.9552 18.9238 31.9908 18.9669 32.0234H14.4277C14.4487 32.0044 14.4686 31.984 14.487 31.9623C14.501 31.9428 14.5127 31.9217 14.5219 31.8995C14.3735 31.8194 14.2173 31.7545 14.0558 31.7057C7.24696 30.3091 3.02374 26.215 1.31105 19.5022C1.27265 19.352 1.38962 18.9907 0.986328 19.1216V13.1857C1.00553 13.2067 1.02126 13.2311 1.04221 13.2503C1.06316 13.2695 1.09108 13.2939 1.09981 13.2887C1.2744 13.1874 1.2744 13.0093 1.32329 12.8417C2.93878 6.41583 6.96298 2.3957 13.3959 0.78137C13.5268 0.748199 13.9196 0.863449 13.7293 0.456665L19.4906 0.463655ZM22.8811 21.5343C23.2882 21.51 23.6965 21.513 24.1032 21.5431C24.8714 21.6479 24.9499 21.2724 24.8871 20.637C24.6863 18.624 23.665 17.1749 21.9296 16.199C20.7319 15.5269 19.4382 15.1044 18.1149 14.7622C16.6554 14.3868 15.1731 14.0883 13.8131 13.4004C12.9577 12.9692 12.3222 12.3808 12.3152 11.3473C12.3152 10.9981 12.1598 10.8917 11.8421 10.8934C10.8539 10.8934 9.86575 10.9109 8.8741 10.8934C8.44113 10.8847 8.33987 11.0802 8.35035 11.4712C8.36781 13.3463 8.96315 14.9403 10.5379 16.0699C11.8351 17.0004 13.3313 17.4665 14.8432 17.8872C16.266 18.2801 17.7326 18.5263 19.0926 19.1356C19.8224 19.4621 20.6254 19.8339 20.7703 20.6562C20.9327 21.5606 21.4233 21.5972 22.1042 21.5413C22.3573 21.5082 22.6192 21.5343 22.8811 21.5343Z" fill="#060606"/>
<path d="M214.998 28.013C213.691 28.013 212.379 27.9833 211.074 28.027C210.79 28.056 210.504 28.0061 210.247 27.8829C209.99 27.7597 209.772 27.5679 209.618 27.3286C207.427 24.3973 205.181 21.5045 202.983 18.582C202.582 18.0582 202.316 17.9028 201.815 18.4929C201.116 19.3104 200.366 20.0825 199.568 20.8044C199.066 21.2636 198.919 21.7612 198.933 22.4124C198.97 24.0098 198.912 25.609 198.961 27.2047C198.98 27.8768 198.75 28.0654 198.112 28.0218C197.387 27.9668 196.659 27.9668 195.934 28.0218C195.15 28.0899 194.905 27.8471 194.909 27.0266C194.945 20.6647 194.93 14.3029 194.93 7.94096C194.93 7.33166 194.959 6.71887 194.921 6.11131C194.886 5.56835 195.109 5.39551 195.619 5.41297C196.433 5.43916 197.25 5.45312 198.063 5.41297C198.729 5.37631 198.966 5.57533 198.957 6.2859C198.919 9.39351 198.942 12.5029 198.942 15.6105V16.6859L203.453 11.9511C205.395 9.91082 207.337 7.86878 209.279 5.82497C209.439 5.65038 209.59 5.44958 209.843 5.44784C211.344 5.43911 212.846 5.44784 214.588 5.44784C213.65 6.42551 212.884 7.23739 212.105 8.03874C209.979 10.2269 207.848 12.4104 205.714 14.5892C205.373 14.9384 205.19 15.167 205.571 15.6594C208.579 19.5387 211.554 23.4459 214.543 27.3426C214.656 27.491 214.733 27.7232 215 27.6708L214.998 28.013Z" fill="#060606"/>
<path d="M138.715 16.8747C138.715 10.2108 143.841 5.19849 150.656 5.19849C157.397 5.19849 162.481 10.134 162.547 16.7403C162.614 23.3466 157.378 28.4637 150.527 28.4602C143.788 28.4567 138.715 23.481 138.715 16.8747ZM158.289 16.8747C158.289 12.3687 154.925 8.86477 150.595 8.86128C146.266 8.85779 142.935 12.2884 142.935 16.777C142.935 21.3057 146.264 24.7642 150.629 24.7747C154.993 24.7852 158.289 21.3861 158.289 16.8765V16.8747Z" fill="#060606"/>
<path d="M67.4651 16.8187C67.4651 13.3898 67.4826 9.96099 67.4512 6.53214C67.4512 5.80411 67.5978 5.52303 68.4044 5.52827C73.4359 5.56435 78.4675 5.56435 83.499 5.52827C84.248 5.52827 84.4837 5.77962 84.4052 6.47971C84.3091 7.33518 84.7753 8.43159 84.1939 8.98852C83.6562 9.50355 82.5825 9.13869 81.7497 9.14392C78.6665 9.16138 75.5816 9.18053 72.4967 9.13165C71.6744 9.11943 71.4596 9.38308 71.4963 10.1635C71.5557 11.4694 71.5539 12.7822 71.4963 14.0847C71.4649 14.8039 71.7355 14.9576 72.3919 14.9436C75.5624 14.9139 78.7329 14.9437 81.9033 14.9157C82.6261 14.9157 82.9945 15.0361 82.9002 15.8567C82.806 16.6772 83.2372 17.7771 82.7361 18.3009C82.1879 18.8892 81.0828 18.4929 80.2238 18.5034C77.6941 18.5314 75.1608 18.5122 72.6329 18.5139C71.5155 18.5139 71.5155 18.5139 71.5138 19.6697C71.5138 20.9197 71.5644 22.1714 71.4963 23.418C71.4492 24.2665 71.6534 24.5563 72.577 24.5406C76.2433 24.4812 79.9096 24.5406 83.5759 24.4969C84.3545 24.4882 84.6234 24.7134 84.5448 25.4729C84.494 26.0537 84.494 26.6379 84.5448 27.2187C84.5954 27.8926 84.3598 28.1283 83.6614 28.1213C80.7546 28.0881 77.8442 28.1073 74.9321 28.1073C72.7219 28.1073 70.5116 28.0881 68.2979 28.1178C67.6554 28.1178 67.4477 27.9275 67.4529 27.2728C67.4809 23.7916 67.4651 20.3052 67.4651 16.8187Z" fill="#060606"/>
<path d="M50.806 5.19473C53.4701 5.17374 56.0736 5.99027 58.2485 7.52896C58.7496 7.87813 58.9225 8.16265 58.4755 8.69513C58.0136 9.2556 57.5924 9.8484 57.215 10.4689C56.8938 10.9927 56.6127 11.0049 56.1134 10.661C54.2226 9.36384 52.1695 8.55546 49.8161 8.82258C48.9554 8.92034 48.175 9.21889 47.5796 9.87009C46.5077 11.0555 46.8254 12.8137 48.278 13.6429C49.425 14.2959 50.7065 14.5926 51.9757 14.9104C53.2508 15.1972 54.4986 15.5944 55.7048 16.0975C58.4057 17.2969 59.661 19.144 59.5737 21.8152C59.4794 24.6836 58.0024 26.8783 55.3155 27.7913C51.3769 29.1322 47.6338 28.4687 44.1071 26.3859C41.8463 25.0468 41.8672 25.0119 43.5083 23.0496L43.6183 22.9151C44.4092 21.9671 44.4109 21.9654 45.3991 22.7109C47.4452 24.256 49.7183 25.0765 52.3092 24.8548C54.1196 24.6976 55.312 23.7811 55.5058 22.4211C55.6542 21.3735 55.3312 20.5338 54.4059 19.9629C53.4021 19.3414 52.2795 19.0411 51.1517 18.7583C49.5392 18.3851 47.9575 17.8895 46.4204 17.276C41.7066 15.3084 42.0767 8.92731 45.5946 6.62628C47.0175 5.70796 48.704 5.19822 50.806 5.19473Z" fill="#060606"/>
<path d="M102.518 5.19822C105.661 5.17378 108.454 6.1113 110.846 8.21331C111.255 8.5747 111.347 8.82605 110.932 9.24855C110.34 9.8488 109.783 10.4812 109.261 11.1428C108.912 11.5985 108.646 11.5793 108.226 11.2109C106.937 10.0883 105.483 9.27826 103.763 8.98147C98.7736 8.12426 94.5713 12.0838 94.9851 17.4174C95.2801 21.2094 97.5113 23.891 100.806 24.5999C103.627 25.2074 106.106 24.3886 108.212 22.4699C108.756 21.9723 109.097 21.8903 109.591 22.5031C110.061 23.0568 110.574 23.5728 111.125 24.0464C111.475 24.3642 111.408 24.5702 111.115 24.8827C107.833 28.4373 101.81 29.5302 97.2547 27.3775C95.0332 26.3195 93.2092 24.5774 92.0502 22.407C90.8911 20.2365 90.4579 17.7518 90.8142 15.3172C91.7255 9.17527 96.3241 5.19822 102.518 5.19822Z" fill="#060606"/>
<path d="M167.598 16.9129C167.598 9.70432 173.613 4.42479 180.753 5.23312C183.381 5.53166 185.699 6.43782 187.7 8.1697C188.131 8.54157 188.26 8.81568 187.799 9.27484C187.206 9.87296 186.649 10.5067 186.132 11.1725C185.795 11.6037 185.565 11.5933 185.163 11.2406C183.548 9.81427 181.696 8.90641 179.498 8.86625C175.566 8.79293 172.394 11.6597 171.905 15.717C171.395 19.9577 173.871 23.7863 177.742 24.6086C180.535 25.2022 182.979 24.387 185.074 22.5032C185.673 21.9637 186.064 21.8449 186.57 22.5747C186.865 22.9972 187.295 23.3254 187.665 23.6973C188.449 24.4829 188.459 24.4952 187.613 25.2686C184.058 28.5019 179.899 29.2404 175.434 27.8419C171.078 26.4784 168.611 23.3027 167.769 18.8473C167.732 18.6475 167.707 18.4459 167.692 18.2432C167.656 17.7788 167.626 17.318 167.598 16.9129Z" fill="#060606"/>
<path d="M119.165 16.7159C119.165 13.2242 119.182 9.74296 119.151 6.25823C119.151 5.60528 119.336 5.38529 119.984 5.41497C120.767 5.46386 121.553 5.46386 122.337 5.41497C123.055 5.36609 123.196 5.67161 123.193 6.32455C123.17 11.9305 123.177 17.5382 123.182 23.1459C123.182 24.5129 123.023 24.3488 124.39 24.3523C127.678 24.3523 130.963 24.3715 134.249 24.3418C134.897 24.3418 135.155 24.5164 135.085 25.1746C134.987 26.0877 135.48 27.2696 134.878 27.8527C134.321 28.3904 133.158 28.0081 132.259 28.0116C128.301 28.0255 124.344 28.0255 120.387 28.0116C118.98 28.0116 119.165 28.1862 119.165 26.7388C119.16 23.399 119.165 20.0574 119.165 16.7159Z" fill="#060606"/>
</svg>
