<svg width="195" height="36" viewBox="0 0 195 36" fill="none" xmlns="http://www.w3.org/2000/svg">
<path d="M101.448 27.5991H94.8095V26.4173C94.8095 23.3805 94.8208 20.3393 94.8095 17.3048C94.8015 16.7078 94.7405 16.1126 94.6272 15.5264C94.4021 14.286 93.7582 13.3518 92.4211 13.1627C91.0479 12.9691 89.7197 13.3878 89.1795 14.6417C88.5593 16.0689 88.187 17.5915 88.0787 19.1439C87.9098 21.906 88.0314 24.6862 88.0314 27.5586H81.3636C81.3636 26.8067 81.3636 26.0661 81.3636 25.3255C81.3456 22.327 81.3794 19.3263 81.2871 16.321C81.2263 14.322 80.2403 13.1695 78.6735 13.1042C77.3431 13.0524 76.168 13.5792 75.6233 14.8128C75.1162 15.8878 74.811 17.0469 74.7228 18.2322C74.6013 21.2982 74.6823 24.3755 74.6823 27.5474H68.082V8.07071H73.989V11.2898L74.2141 11.4766C75.7673 8.89684 78.068 7.67676 80.9539 7.55745C83.8961 7.43814 86.2058 8.51416 87.5857 11.3145C89.9651 7.80281 93.2495 7.1027 97.0404 7.81631C99.0911 8.2035 100.331 9.5114 100.946 11.4181C101.231 12.2323 101.394 13.0842 101.43 13.9461C101.473 18.4618 101.448 22.9618 101.448 27.5991Z" fill="#060606"/>
<path d="M112.517 35.6019H105.874V8.00543C107.744 8.00543 109.601 7.9829 111.454 8.04143C111.641 8.04143 111.938 8.54117 111.963 8.82707C112.033 9.63522 111.988 10.4547 112.102 11.3393C113.284 9.48443 114.925 8.4129 116.99 7.85012C120.555 6.89339 124.002 8.13373 126.028 11.1975C128.785 15.3666 128.263 22.0028 125.19 25.4898C122.336 28.7337 115.511 29.3167 112.517 25.1454V35.6019ZM121.134 17.8495C120.816 16.7713 120.663 15.666 120.182 14.7318C118.779 11.9944 114.966 11.9268 113.379 14.5674C112.136 16.6384 112.161 18.786 113.28 20.8705C113.993 22.2032 115.155 23.0001 116.74 22.9844C118.252 22.9686 119.457 22.2978 120.116 20.9584C120.589 20.0174 120.792 18.9368 121.134 17.8495Z" fill="#060606"/>
<path d="M23.361 2.23128L22.8208 7.53036C21.3013 7.04637 19.8943 6.45886 18.4221 6.16172C15.6104 5.59444 12.8843 5.85104 10.5657 7.76448C7.86436 9.99308 6.87162 14.0879 8.10748 17.6176C8.66478 19.2053 9.71007 20.576 11.0937 21.5335C12.4774 22.491 14.1286 22.9862 15.8108 22.9483C17.6927 22.9235 19.5724 22.4575 21.4498 22.1604C21.9942 22.0444 22.5322 21.9001 23.0616 21.7281C23.1719 23.3872 23.3048 24.9427 23.3498 26.5005C23.3498 26.7256 22.9964 27.1398 22.7397 27.2051C17.7625 28.4883 12.8078 28.6143 7.99493 26.5298C3.35763 24.5308 0.953442 20.8615 0.536986 15.9068C0.224081 12.1767 0.919676 8.66943 3.3869 5.68445C5.60875 2.99437 8.58472 1.73153 11.9254 1.162C15.7658 0.515933 19.5161 1.01568 23.361 2.23128Z" fill="#060606"/>
<path d="M53.661 28.171C49.5753 27.9684 46.3697 27.14 43.961 24.4117C39.9923 19.9095 40.6001 9.93924 49.6991 7.94026C53.1185 7.18838 56.5019 7.37298 59.6197 9.12434C63.4173 11.2584 64.7973 14.7522 64.4821 18.8875C64.1445 23.2208 61.6457 26.046 57.569 27.3922C56.1372 27.8672 54.5885 27.9955 53.661 28.171ZM48.4182 17.5908C48.6591 18.7164 48.7716 19.7248 49.0935 20.6636C49.7373 22.4847 51.2613 23.4707 53.1455 23.446C54.0136 23.4401 54.8586 23.1656 55.5644 22.6602C56.2702 22.1547 56.8022 21.4431 57.0872 20.6231C57.814 18.7092 57.7607 16.5865 56.9386 14.7116C56.2633 13.1156 54.9284 12.2601 53.2491 12.2039C51.4977 12.1453 49.9759 12.8117 49.2646 14.5608C48.8864 15.5491 48.7086 16.6273 48.4272 17.5998L48.4182 17.5908Z" fill="#060606"/>
<path d="M159.598 28.1866C155.053 27.9615 151.701 27.1196 149.281 24.1346C145.659 19.6662 146.272 10.234 154.722 8.08873C158.747 7.06673 162.624 7.34361 166.115 9.77031C169.208 11.9179 170.28 15.0919 170.023 18.7005C169.744 22.6039 167.862 25.5506 164.134 26.9958C162.419 27.6599 160.555 27.9435 159.598 28.1866ZM154.009 17.5321C154.234 18.6194 154.322 19.5964 154.614 20.5104C155.215 22.3991 156.748 23.4616 158.666 23.4548C159.555 23.4635 160.424 23.1904 161.149 22.6748C161.873 22.1592 162.415 21.4275 162.698 20.5847C163.342 18.7662 163.323 16.7784 162.644 14.9726C161.996 13.2392 160.638 12.2713 158.795 12.2015C156.994 12.1294 155.481 13.0187 154.785 14.716C154.41 15.6322 154.247 16.6385 154.009 17.5321Z" fill="#060606"/>
<path d="M180.257 27.5901H173.614C173.589 27.2029 173.542 26.8112 173.54 26.4173C173.54 20.6792 173.564 14.9366 173.513 9.20526C173.513 8.172 173.85 7.92888 174.803 7.9694C176.365 8.03918 177.934 7.98962 179.611 7.98962V11.3348C180.694 9.86483 181.963 8.7708 183.611 8.14274C189.192 6.01544 193.815 8.91487 194.399 14.8961C194.428 15.1932 194.426 15.4949 194.426 15.7965C194.426 19.691 194.426 23.5876 194.426 27.5676H187.762C187.762 27.1173 187.762 26.6874 187.762 26.2529C187.704 22.9551 187.74 19.6549 187.537 16.366C187.418 14.3152 186.346 13.255 184.762 13.0794C183.894 12.9857 183.021 13.1978 182.293 13.679C181.565 14.1603 181.028 14.8805 180.775 15.7155C180.462 16.6744 180.292 17.6741 180.271 18.6824C180.217 21.6111 180.257 24.5353 180.257 27.5901Z" fill="#060606"/>
<path d="M129.544 12.6225C129.544 11.1593 129.503 9.88968 129.582 8.6268C129.598 8.40169 130.091 8.04152 130.383 8.01901C131.383 7.94247 132.389 7.98972 133.535 7.98972C133.535 6.76736 133.58 5.65311 133.517 4.54556C133.476 3.8117 133.742 3.49653 134.438 3.29843C136.295 2.76492 138.129 2.15033 140.126 1.52002V7.94471H144.853V12.6225C143.685 12.6225 142.501 12.663 141.324 12.609C140.48 12.5707 140.119 12.7846 140.151 13.7346C140.225 15.9046 140.151 18.0815 140.196 20.2628C140.241 23.178 141.335 24.0672 144.248 23.617C144.428 23.5877 144.61 23.5719 144.989 23.5247V27.7703C142.341 28.2205 139.55 28.5199 136.833 27.5294C134.433 26.6537 133.623 24.603 133.548 22.2551C133.461 19.4479 133.481 16.6273 133.53 13.8224C133.548 12.8634 133.208 12.564 132.299 12.627C131.437 12.6698 130.577 12.6225 129.544 12.6225Z" fill="#060606"/>
<path d="M33.0973 27.5993C32.6786 27.6263 32.4219 27.6578 32.1676 27.6578C30.2991 27.6578 28.4285 27.6578 26.479 27.6578V8.00781C28.3227 8.00781 30.1821 7.98753 32.037 8.04606C32.2081 8.04606 32.476 8.57285 32.5007 8.87C32.566 9.66464 32.5232 10.4683 32.6493 11.3327C34.4322 8.05508 37.0953 6.99704 40.7286 7.82771C40.625 9.61059 40.5215 11.3822 40.4134 13.2439C39.9137 13.2101 39.5129 13.2034 39.11 13.1516C35.9584 12.7487 33.588 14.4347 33.2886 17.6088C33.0365 20.2831 33.1446 22.9912 33.0973 25.6858C33.0883 26.2846 33.0973 26.8812 33.0973 27.5993Z" fill="#060606"/>
</svg>
