<svg width="214" height="36" viewBox="0 0 214 36" fill="none" xmlns="http://www.w3.org/2000/svg">
<path d="M182.917 18.186C182.917 15.632 182.935 13.078 182.905 10.5221C182.897 9.9025 183.061 9.53686 183.631 9.21183C188.335 6.5353 193.023 3.8326 197.697 1.10374C198.221 0.798105 198.597 0.806421 199.116 1.10929C203.794 3.83322 208.482 6.53682 213.18 9.22013C213.699 9.51653 213.908 9.8277 213.906 10.4436C213.878 15.6434 213.878 20.8432 213.906 26.0429C213.906 26.6071 213.721 26.9229 213.237 27.2018C208.487 29.9214 203.747 32.6579 199.017 35.4114C198.549 35.6838 198.217 35.6515 197.771 35.393C193.042 32.645 188.305 29.9122 183.56 27.1944C183.069 26.9174 182.902 26.5914 182.908 26.0291C182.935 23.4169 182.917 20.801 182.917 18.186ZM211.187 18.2784C211.187 16.1242 211.175 13.9709 211.196 11.8148C211.196 11.3633 211.065 11.09 210.664 10.8601C206.822 8.65874 202.986 6.44542 199.157 4.2201C198.657 3.93017 198.215 3.88955 197.697 4.19057C193.869 6.41589 190.033 8.62917 186.191 10.8305C185.764 11.0752 185.595 11.3513 185.598 11.8462C185.618 16.0937 185.618 20.3412 185.598 24.5886C185.598 25.1288 185.798 25.4077 186.244 25.6644C190.089 27.8632 193.924 30.0793 197.749 32.3126C198.246 32.6035 198.605 32.5684 199.083 32.2905C202.882 30.0744 206.692 27.8786 210.513 25.7032C211.054 25.3966 211.208 25.0512 211.198 24.464C211.167 22.4021 211.187 20.3402 211.187 18.2784Z" fill="#060606"/>
<path d="M68.1791 15.027C68.1859 18.9347 68.1908 22.8437 68.1938 26.7538C68.1938 27.7243 68.1015 27.799 67.132 27.811C66.578 27.8184 66.0239 27.811 65.4699 27.8009C65.1006 27.8009 64.902 27.6051 64.8919 27.2312C64.8854 26.9856 64.8799 26.739 64.8799 26.4925C64.8799 20.9523 64.8799 15.4139 64.8799 9.87742C64.8799 8.6041 64.8799 8.60319 66.1551 8.59949C66.7091 8.59949 67.2631 8.62163 67.8171 8.59485C68.3508 8.569 68.6481 8.77954 68.867 9.28278C69.7968 11.4268 70.7645 13.5552 71.7202 15.6891C72.7137 17.9052 73.7097 20.1213 74.7082 22.3373C74.7913 22.522 74.8125 22.7667 75.0776 22.8359C75.4081 22.6993 75.422 22.3539 75.5392 22.088C77.3481 17.9781 79.1708 13.8701 80.9335 9.74261C81.3029 8.88665 81.7424 8.44064 82.712 8.58561C83.2235 8.66132 83.7563 8.58563 84.2817 8.60594C84.928 8.6318 84.9936 8.7103 85.0296 9.38066C85.0388 9.56533 85.0296 9.75001 85.0296 9.93468V26.6421C85.0296 26.7954 85.0296 26.9496 85.0296 27.1038C85.0001 27.8305 84.9373 27.9071 84.2364 27.9292C83.6215 27.9486 83.0056 27.9293 82.3897 27.9228C81.94 27.9163 81.7129 27.6864 81.7193 27.2303C81.7193 26.9847 81.7138 26.7381 81.7138 26.4916C81.7138 23.0443 81.7138 19.5971 81.7138 16.1499V15.1342C81.3444 15.1951 81.3555 15.4564 81.2844 15.6374C79.831 19.3622 78.3814 23.089 76.9354 26.8175C76.5614 27.7824 76.5577 27.7954 75.5457 27.8055C75.1764 27.8092 74.807 27.8092 74.4377 27.8055C73.4617 27.7963 73.4386 27.7852 73.0822 26.8932C72.2702 24.8655 71.4616 22.8366 70.6565 20.8064C69.9002 18.8895 69.1569 16.968 68.4072 15.0483C68.3582 14.9052 68.3915 14.6558 68.1403 14.7334C68.035 14.7703 68.1163 14.9329 68.1791 15.027Z" fill="#060606"/>
<path d="M43.8919 14.8924L43.8725 26.4345C43.8725 27.8112 43.8725 27.8195 42.5087 27.813C40.4865 27.8056 40.6841 28.0033 40.6823 25.9746C40.6767 20.7422 40.6767 15.5113 40.6823 10.282C40.6823 10.0364 40.6823 9.78984 40.6823 9.5433C40.7044 8.67534 40.7598 8.61994 41.6472 8.6024C42.2631 8.59224 42.8808 8.63286 43.4939 8.59131C44.107 8.54975 44.4477 8.80554 44.6887 9.36417C45.5567 11.3679 46.4588 13.3568 47.3517 15.3504C48.3693 17.6249 49.389 19.8982 50.4108 22.1703C50.4437 22.2565 50.481 22.341 50.5226 22.4234C50.7525 22.8176 50.9584 22.8315 51.1689 22.4095C51.5604 21.6089 51.915 20.789 52.277 19.9718C53.8153 16.4482 55.3592 12.9265 56.8772 9.39371C57.1136 8.83969 57.4146 8.5507 58.0462 8.5904C58.7507 8.63472 59.4608 8.60981 60.1699 8.60334C60.6316 8.59873 60.8467 8.82122 60.8357 9.27828C60.8301 9.49343 60.8357 9.7095 60.8357 9.92464V26.5406C60.8357 26.7253 60.8412 26.91 60.8357 27.0947C60.7997 27.7946 60.7138 27.8998 60.0249 27.9257C59.41 27.9497 58.7941 27.9257 58.1782 27.9257C57.7165 27.9257 57.506 27.6967 57.5217 27.2396C57.53 26.9931 57.5217 26.7465 57.5217 26.5009C57.5217 23.0537 57.5217 19.6065 57.5217 16.1592V15.0623C57.1413 15.2469 57.0979 15.5397 57.0055 15.7751C55.6174 19.3338 54.2354 22.8915 52.8596 26.4483C52.7821 26.6496 52.6749 26.8426 52.6214 27.0485C52.469 27.6071 52.1292 27.8509 51.542 27.813C51.0192 27.783 50.4951 27.783 49.9722 27.813C49.4339 27.8407 49.1357 27.6228 48.9381 27.1122C48.1366 25.0476 47.2973 22.9977 46.4792 20.9395C45.7635 19.138 45.0609 17.3319 44.3471 15.5304C44.2548 15.3042 44.1292 15.0928 44.0193 14.8748C43.9694 14.8139 43.926 14.8139 43.8919 14.8924Z" fill="#060606"/>
<path d="M28.4093 27.9745C27.0328 28.0344 25.6567 27.8467 24.3465 27.4205C22.2126 26.7151 20.6152 25.3891 19.7472 23.3125C18.3492 19.9699 18.1959 16.5719 19.5754 13.1748C20.3714 11.2173 21.8266 9.86827 23.8082 9.17852C26.461 8.25515 29.184 8.2182 31.8913 8.9098C35.0483 9.71682 36.8516 11.8646 37.5137 14.9837C38.0105 17.3281 37.9929 19.6929 37.3807 22.017C36.5996 24.9865 34.703 26.8527 31.7251 27.6237C30.6433 27.9039 29.5258 28.0221 28.4093 27.9745ZM34.0677 18.2201C34.148 17.064 33.9864 15.9039 33.5931 14.8138C32.9698 13.0954 31.727 12.1148 29.9753 11.739C28.9497 11.5259 27.8925 11.5124 26.8617 11.6993C24.8202 12.0483 23.3871 13.137 22.8082 15.1287C22.1618 17.3623 22.1461 19.6255 22.9928 21.8305C23.3808 22.8485 24.1349 23.6849 25.1073 24.1758C26.6327 24.9792 28.2468 24.993 29.8747 24.7151C31.8488 24.378 33.0908 23.1684 33.6937 21.2654C34.0004 20.281 34.1271 19.2494 34.0677 18.2201Z" fill="#060606"/>
<path d="M140.236 15.3254C140.236 17.1407 140.236 18.9567 140.236 20.7733C140.236 21.7059 140.051 22.6099 139.774 23.4926C139.182 25.3846 137.921 26.6902 136.07 27.3319C133.339 28.2784 130.552 28.3033 127.83 27.3319C125.306 26.4279 124.107 24.4529 123.805 21.8545C123.528 19.4916 123.688 17.1213 123.656 14.7547C123.631 13.0317 123.645 11.3078 123.656 9.58389C123.656 8.65498 123.712 8.61344 124.665 8.60236C125.219 8.5962 125.773 8.5962 126.327 8.60236C127.251 8.61621 127.297 8.65961 127.303 9.61806C127.311 10.9412 127.303 12.2644 127.303 13.5885C127.303 15.8662 127.303 18.1438 127.303 20.4215C127.289 20.8523 127.323 21.2832 127.403 21.7068C127.757 23.3042 128.691 24.3328 130.312 24.6809C131.627 24.9635 132.933 24.9755 134.219 24.4963C135.165 24.1463 135.846 23.5341 136.224 22.5858C136.558 21.7232 136.723 20.8044 136.711 19.8794C136.711 16.6476 136.711 13.4159 136.711 10.1841C136.711 9.96893 136.711 9.75286 136.711 9.53772C136.733 8.67068 136.787 8.61436 137.677 8.59866C138.261 8.5885 138.846 8.58389 139.431 8.59866C140.136 8.6199 140.22 8.6956 140.23 9.41305C140.246 10.6744 140.235 11.9366 140.236 13.1989V15.3226V15.3254Z" fill="#060606"/>
<path d="M112.826 12.5978C112.255 13.6569 111.891 14.7345 111.462 15.7825C109.948 19.4833 108.44 23.1873 106.938 26.8943C106.574 27.7872 106.555 27.7973 105.58 27.8047C104.934 27.8047 104.288 27.8195 103.641 27.7982C103.012 27.7761 102.94 27.669 103.18 27.0595C103.517 26.2008 103.884 25.3541 104.245 24.5055C106.3 19.6634 108.357 14.8228 110.416 9.98371C111.112 8.35766 110.827 8.61899 112.466 8.59406C113.02 8.58575 113.574 8.61806 114.128 8.58666C114.682 8.55527 114.979 8.78796 115.183 9.27734C115.778 10.6956 116.398 12.1028 117.011 13.5137C118.848 17.7458 120.684 21.9779 122.521 26.21C123.222 27.8361 123.343 27.8232 121.469 27.8093C120.977 27.8093 120.484 27.7881 119.991 27.8093C119.484 27.8343 119.215 27.5969 119.015 27.1463C118.457 25.8804 117.842 24.6385 117.29 23.3698C117.049 22.8158 116.708 22.5784 116.089 22.596C114.797 22.6329 113.504 22.608 112.211 22.6052C111.965 22.6105 111.718 22.6019 111.472 22.5794C111.164 22.5443 111.028 22.3384 111.134 22.0577C111.413 21.3091 111.711 20.5674 112.026 19.8324C112.171 19.4953 112.508 19.4907 112.821 19.4888C113.621 19.4888 114.422 19.5018 115.221 19.4741C115.799 19.4547 115.895 19.3254 115.665 18.7852C114.81 16.7769 113.925 14.7806 113.048 12.7833C113.036 12.7381 112.967 12.7113 112.826 12.5978Z" fill="#060606"/>
<path d="M96.6909 22.9866C96.9901 22.7752 97.0353 22.4539 97.1461 22.1805C98.8433 17.9884 100.535 13.7942 102.22 9.59781C102.622 8.60057 102.622 8.59874 103.697 8.59504C104.497 8.59504 105.298 8.58122 106.098 8.60154C106.734 8.61723 106.803 8.71323 106.542 9.32265C105.782 11.1057 105 12.8786 104.224 14.6542C102.51 18.572 100.807 22.4954 99.0723 26.4022C98.2994 28.139 98.5857 27.9165 96.7066 27.934C96.2754 27.9387 95.8433 27.9091 95.4139 27.9396C94.7934 27.9848 94.4628 27.6995 94.2347 27.139C93.4471 25.2 92.6244 23.2775 91.8155 21.3486C90.1978 17.4908 88.58 13.6326 86.9623 9.77419C86.4711 8.60151 86.4766 8.59874 87.774 8.59689C88.4508 8.59689 89.1304 8.63384 89.8054 8.58675C90.4803 8.53966 90.8552 8.80283 91.1092 9.45195C92.196 12.2313 93.3308 14.9921 94.4508 17.7576C95.0855 19.3255 95.7235 20.8925 96.365 22.4585C96.4407 22.6478 96.4822 22.8712 96.6909 22.9866Z" fill="#060606"/>
<path d="M11.1927 27.9747C9.25364 28.0338 7.44015 27.7808 5.71253 27.0375C3.74669 26.1908 2.34963 24.7697 1.59801 22.7753C0.532441 19.947 0.489965 17.0457 1.31453 14.1639C2.02645 11.6838 3.72914 10.0466 6.15206 9.2193C8.14093 8.54828 10.2497 8.30747 12.3386 8.51289C13.4734 8.61631 14.6036 8.72714 15.7024 9.04847C16.671 9.33195 16.7283 9.3975 16.7357 10.3781C16.7357 10.9007 16.7357 11.4243 16.7181 11.9478C16.7024 12.3467 16.4744 12.489 16.0949 12.3855C15.8871 12.3283 15.6831 12.2572 15.4771 12.1962C13.503 11.6163 11.5002 11.4114 9.45955 11.7456C6.94892 12.1565 5.06341 13.6062 4.63035 16.3569C4.38196 17.9349 4.45582 19.4908 4.94059 21.0088C5.58695 23.0476 7.06434 24.2166 9.10867 24.6395C11.2564 25.0837 13.3931 24.9295 15.4919 24.2942C16.6507 23.9433 16.6489 23.9359 16.7846 25.1169C17.0136 27.1105 16.9998 27.1252 15.0607 27.5925C13.7953 27.8983 12.4935 28.0269 11.1927 27.9747Z" fill="#060606"/>
<path d="M163.537 19.8527C163.537 22.1611 163.541 24.464 163.537 26.7696C163.537 27.7577 163.485 27.8001 162.487 27.8094C161.872 27.8158 161.258 27.8038 160.64 27.8029C160.224 27.8029 160.018 27.597 160.017 27.1815C160.017 26.9045 160.009 26.6274 160.009 26.3504C160.009 21.9546 160.009 17.5584 160.009 13.162C160.009 12.9154 160.02 12.6689 160.003 12.4233C159.961 11.8314 159.887 11.7354 159.275 11.7252C157.983 11.704 156.69 11.7252 155.397 11.7114C154.556 11.7031 154.494 11.6394 154.474 10.8314C154.462 10.2774 154.474 9.72339 154.481 9.16937C154.481 8.79263 154.683 8.60795 155.056 8.60241C155.271 8.60241 155.486 8.59316 155.702 8.59316H167.784C167.969 8.59316 168.154 8.58578 168.338 8.59871C168.942 8.64118 169.031 8.71415 169.056 9.30972C169.079 9.86374 169.078 10.4178 169.056 10.9718C169.03 11.6181 168.954 11.6975 168.274 11.7105C167.106 11.7299 165.937 11.716 164.769 11.7188C163.537 11.7188 163.533 11.7234 163.531 12.9358C163.532 15.2411 163.534 17.5467 163.537 19.8527Z" fill="#060606"/>
<path d="M143.921 18.0909C143.921 15.3553 143.921 12.6193 143.921 9.88306C143.921 9.63744 143.926 9.3909 143.935 9.14436C143.947 8.81749 144.119 8.61987 144.448 8.61618C145.277 8.60694 146.108 8.60694 146.941 8.61618C147.278 8.61618 147.431 8.8341 147.439 9.15636C147.446 9.43337 147.451 9.71038 147.452 9.98739V23.2672C147.452 23.4824 147.447 23.6975 147.452 23.9136C147.476 24.7262 147.535 24.8019 148.364 24.8056C150.547 24.8167 152.73 24.8056 154.912 24.8111C156.531 24.8111 156.481 24.6763 156.481 26.3513C156.481 27.921 156.495 27.8102 155.018 27.8111C151.791 27.8111 148.563 27.8111 145.335 27.8111C145.058 27.8111 144.781 27.8056 144.504 27.7991C144.134 27.7899 143.943 27.5914 143.934 27.222C143.928 26.9764 143.923 26.7299 143.922 26.4833L143.921 18.0909Z" fill="#060606"/>
<path d="M68.1795 15.0272C68.1167 14.9349 68.0308 14.7705 68.1407 14.7373C68.3919 14.6597 68.3586 14.909 68.4076 15.0522L68.1795 15.0272Z" fill="#060606"/>
<path d="M43.8926 14.8925C43.9267 14.8149 43.9701 14.8167 44.0209 14.8768L43.8926 14.8925Z" fill="#060606"/>
<path d="M188.12 13.4658C188.391 13.403 188.576 13.5969 188.781 13.7142C191.471 15.2627 194.154 16.8241 196.85 18.3625C197.296 18.6164 197.52 18.8998 197.515 19.4465C197.491 22.5213 197.504 25.5961 197.5 28.6709C197.5 28.8436 197.556 29.0403 197.372 29.1972C197.08 29.2416 196.873 29.0282 196.644 28.8962C193.981 27.3625 191.326 25.8159 188.656 24.2933C188.212 24.0393 187.971 23.7512 187.975 23.211C187.992 20.1362 187.983 17.0614 187.985 13.9866C187.981 13.8066 187.967 13.6136 188.12 13.4658Z" fill="#060606"/>
<path d="M189.404 11.8757C189.573 11.5848 189.849 11.498 190.083 11.3632C192.583 9.91442 195.094 8.48782 197.582 7.01782C198.151 6.68171 198.615 6.64017 199.198 6.98459C201.685 8.45367 204.194 9.88579 206.695 11.3309C206.804 11.387 206.91 11.4487 207.012 11.5155C207.373 11.775 207.381 11.9551 207.035 12.2136C206.933 12.2817 206.828 12.3433 206.718 12.3983C204.216 13.8424 201.705 15.2709 199.219 16.7381C198.643 17.0788 198.192 17.0825 197.611 16.7381C195.074 15.2339 192.509 13.775 189.955 12.2995C189.771 12.2044 189.567 12.1241 189.404 11.8757Z" fill="#060606"/>
<path d="M207.498 24.6745L199.544 29.2563C199.267 29.0716 199.308 28.8759 199.308 28.7023C199.305 26.0319 199.305 23.3615 199.308 20.6911C199.308 19.9589 199.423 19.8721 200.013 20.2092C202.436 21.5942 204.848 22.9996 207.261 24.3994C207.312 24.4317 207.343 24.4936 207.498 24.6745Z" fill="#060606"/>
</svg>
